<?xml version="1.0" ?><svg id="Layer_2" style="enable-background:new 0 0 64 64;" version="1.1" viewBox="0 0 64 64" xml:space="preserve" xmlns="http://www.w3.org/2000/svg" xmlns:xlink="http://www.w3.org/1999/xlink"><g><g><path d="M45.91,8.41C46.56,8.15,47.27,8,48,8c0.83,0,1.58,0.34,2.12,0.88C50.66,9.42,51,10.17,51,11    s-0.34,1.58-0.88,2.12C49.58,13.66,48.83,14,48,14H30c0.83,0,1.58-0.34,2.12-0.88C32.66,12.58,33,11.83,33,11    s-0.34-1.58-0.88-2.12c-0.45-0.45-1.04-0.76-1.7-0.85l0.54-1.27C32.2,3.87,35.04,2,38.18,2c1.9,0,3.66,0.68,5.03,1.82    C44.58,4.96,45.56,6.56,45.91,8.41z" style="fill:#3BAFDA;"/><path d="M15.02,5.43C15.64,6.47,16,7.69,16,9c0,3.87-3.13,7-7,7s-7-3.13-7-7s3.13-7,7-7    C11.56,2,13.8,3.37,15.02,5.43z" style="fill:#EF7385;"/><path d="M28,35l-1.18-0.39c-1.44-0.48-2.64-1.39-3.49-2.57c-0.52-0.72-0.91-1.54-1.12-2.42    C22.07,29.08,22,28.5,22,27.92c0-1.74,0.64-3.4,1.8-4.69c0.07-0.1,0.17-0.2,0.26-0.29L28,19l3.94,3.94    c1.32,1.32,2.06,3.11,2.06,4.98c0,3.03-1.94,5.73-4.82,6.69L28,35z" style="fill:#DFB28B;"/><path d="M21.94,19.94c0.91,0.91,1.55,2.05,1.85,3.28l0.01,0.01c-1.16,1.29-1.8,2.95-1.8,4.69    c0,0.58,0.07,1.16,0.21,1.7c-0.8,0.89-1.84,1.59-3.03,1.99L18,32l-1.18-0.39c-1.44-0.48-2.64-1.39-3.49-2.57    c-0.85-1.17-1.33-2.6-1.33-4.12c0-1.87,0.74-3.66,2.06-4.98L18,16L21.94,19.94z" style="fill:#B27946;"/><path d="M40,40.25c0,1.03,0.7,1.93,1.7,2.18l4.22,1.05c1.22,0.31,2.08,1.4,2.08,2.66    c0,1.12-0.68,2.13-1.72,2.55L40,51.2c-1.21,0.48-2,1.65-2,2.95c0,1.15,0.61,2.2,1.6,2.77l4.53,2.58C40.38,61.12,36.27,62,32,62    l-5.36-3.57c-0.4-0.27-0.64-0.72-0.64-1.2c0-0.71,0.51-1.32,1.21-1.43l3.43-0.57C31.43,55.1,32,54.42,32,53.62    c0-0.89-0.73-1.62-1.62-1.62H9.31c-3.36-3.67-5.86-8.2-7.13-13.28L2,38h10l1.18,1.18c0.53,0.53,0.82,1.24,0.82,1.98    c0,0.55-0.16,1.08-0.47,1.54l-1.14,1.72C12.13,44.8,12,45.24,12,45.7c0,0.64,0.26,1.21,0.67,1.63C13.09,47.74,13.66,48,14.3,48    h15.4c1.27,0,2.3-1.03,2.3-2.3c0-0.46-0.13-0.9-0.39-1.28l-1.14-1.72C30.16,42.24,30,41.71,30,41.16c0-0.74,0.29-1.45,0.82-1.98    L32,38h10.25C41.01,38,40,39.01,40,40.25z" style="fill:#3BAFDA;"/><path d="M44,38h12h6l-0.18,0.72c-2.38,9.53-9.08,17.08-17.69,20.78l-4.53-2.58    c-0.99-0.57-1.6-1.62-1.6-2.77c0-1.3,0.79-2.47,2-2.95l6.28-2.51c1.04-0.42,1.72-1.43,1.72-2.55c0-1.26-0.86-2.35-2.08-2.66    l-4.22-1.05c-1-0.25-1.7-1.15-1.7-2.18c0-1.24,1.01-2.25,2.25-2.25H44z" style="fill:#5CD6B3;"/><path d="M32,62c-8.86,0-17.01-3.79-22.69-10h21.07c0.89,0,1.62,0.73,1.62,1.62c0,0.8-0.57,1.48-1.36,1.61    l-3.43,0.57c-0.7,0.11-1.21,0.72-1.21,1.43c0,0.48,0.24,0.93,0.64,1.2L32,62z" style="fill:#5CD6B3;"/><path d="M28,38h4l-1.18,1.18C30.29,39.71,30,40.42,30,41.16c0,0.55,0.16,1.08,0.47,1.54l1.14,1.72    C31.87,44.8,32,45.24,32,45.7c0,1.27-1.03,2.3-2.3,2.3H14.3c-0.64,0-1.21-0.26-1.63-0.67C12.26,46.91,12,46.34,12,45.7    c0-0.46,0.13-0.9,0.39-1.28l1.14-1.72c0.31-0.46,0.47-0.99,0.47-1.54c0-0.74-0.29-1.45-0.82-1.98L12,38h6H28z" style="fill:#37BC9B;"/><path d="M27.91,8.41C28.56,8.14,29.27,8,30,8c0.14,0,0.28,0.01,0.42,0.03c0.66,0.09,1.25,0.4,1.7,0.85    C32.66,9.42,33,10.17,33,11s-0.34,1.58-0.88,2.12C31.58,13.66,30.83,14,30,14H18h-4l-0.05-0.05C15.22,12.68,16,10.94,16,9    c0-1.31-0.36-2.53-0.98-3.57C16.23,3.36,18.48,2,21,2c1.72,0,3.31,0.63,4.53,1.69c1.22,1.06,2.07,2.55,2.32,4.25l0.06,0.46V8.41z" style="fill:#3BAFDA;"/></g><g><path d="M57,37v-4.5l4-3V27h-2v1.5L57,30v-5h-2v7l-2-1.5V29h-2v2.5l4,3V37H45v-6.5l4-3V25h-2v1.5L45,28v-4.586l1.707-1.707    l-1.414-1.414L43,22.586V30l-2-1.5V27h-2v2.5l4,3V37H29v-1.279l0.496-0.165C32.788,34.458,35,31.39,35,27.92    c0-2.149-0.837-4.171-2.357-5.691L28,17.586l-3.825,3.825c-0.39-0.802-0.896-1.546-1.532-2.183L18.414,15H48c2.206,0,4-1.794,4-4    s-1.794-4-4-4c-0.473,0-0.935,0.06-1.387,0.157C45.454,3.534,42.071,1,38.183,1c-3.549,0-6.746,2.107-8.144,5.369l-0.277,0.646    c-0.356,0.013-0.706,0.055-1.05,0.123C27.892,3.596,24.689,1,21,1c-2.313,0-4.488,1.034-5.978,2.751C13.555,2.069,11.402,1,9,1    C4.589,1,1,4.589,1,9s3.589,8,8,8c2.021,0,3.864-0.759,5.274-2h3.312l-4.229,4.229C11.837,20.749,11,22.771,11,24.92    c0,3.47,2.212,6.538,5.503,7.635L17,32.72V37H0.719l0.49,1.959C4.748,53.114,17.41,63,32,63s27.252-9.886,30.791-24.041L63.281,37    H57z M9,15c-3.309,0-6-2.691-6-6s2.691-6,6-6s6,2.691,6,6S12.309,15,9,15z M24.771,23.643L28,20.414l3.229,3.229    C32.371,24.785,33,26.305,33,27.92c0,2.557-1.604,4.817-4,5.681v-1.186l2.707-2.707l-1.414-1.414L29,29.586v-2.172l1.707-1.707    l-1.414-1.414L27,26.586V33.6c-2.396-0.863-4-3.122-4-5.68C23,26.305,23.629,24.785,24.771,23.643z M27,35.72V37h-8v-4.279    l0.496-0.165c0.825-0.275,1.589-0.696,2.281-1.216c0.916,1.948,2.586,3.502,4.726,4.215L27,35.72z M31.877,7.157    C32.96,4.632,35.435,3,38.183,3c3.047,0,5.676,2.017,6.541,4.877c-0.163,0.093-0.325,0.188-0.479,0.295    C43.02,7.426,41.609,7,40.171,7H40v2h0.171c0.895,0,1.78,0.221,2.58,0.615c-0.083,0.109-0.171,0.211-0.248,0.326l-0.336,0.504    l1.664,1.109l0.336-0.504C45.024,9.767,46.457,9,48,9c1.103,0,2,0.897,2,2s-0.897,2-2,2H33.444C33.788,12.409,34,11.732,34,11    c0-1.571-0.918-2.919-2.238-3.573L31.877,7.157z M15.918,13C16.602,11.822,17,10.458,17,9c0-1.256-0.299-2.441-0.818-3.501    C17.285,3.951,19.08,3,21,3c2.84,0,5.278,2.064,5.799,4.831c-0.19,0.105-0.375,0.218-0.554,0.342C25.021,7.426,23.609,7,22.171,7    H22v2h0.171c0.896,0,1.78,0.221,2.58,0.615c-0.083,0.109-0.171,0.211-0.248,0.326l-0.336,0.504l1.664,1.109l0.336-0.504    C27.024,9.767,28.457,9,30,9c1.103,0,2,0.897,2,2s-0.897,2-2,2H15.918z M13,24.92c0-1.615,0.629-3.135,1.771-4.277L18,17.414    l3.229,3.229c0.666,0.666,1.153,1.481,1.449,2.371C21.594,24.414,21,26.12,21,27.92c0,0.464,0.046,0.918,0.122,1.364    c-0.609,0.581-1.329,1.034-2.122,1.319v-6.3l1.832-2.748l-1.664-1.109l-1.323,1.985l-1.138-1.138l-1.414,1.414L17,24.414v2.172    l-1.293-1.293l-1.414,1.414L17,29.414V30.6C14.604,29.737,13,27.478,13,24.92z M14.319,39h15.362    C29.246,39.631,29,40.385,29,41.155c0,0.75,0.22,1.477,0.636,2.103l1.145,1.717C30.924,45.189,31,45.439,31,45.697    C31,46.416,30.416,47,29.697,47H14.303C13.584,47,13,46.416,13,45.697c0-0.258,0.076-0.508,0.219-0.723l1.146-1.718    C14.78,42.632,15,41.905,15,41.155C15,40.385,14.754,39.631,14.319,39z M11.712,53h18.664C30.72,53,31,53.28,31,53.624    c0,0.307-0.219,0.565-0.521,0.616l-3.434,0.572C25.86,55.01,25,56.024,25,57.226c0,0.819,0.407,1.581,1.089,2.036l2.23,1.487    C21.99,59.965,16.214,57.201,11.712,53z M32.285,60.988l-5.086-3.391C27.075,57.515,27,57.376,27,57.226    c0-0.219,0.157-0.404,0.374-0.44l3.435-0.572C32.078,56.001,33,54.912,33,53.624C33,52.177,31.823,51,30.376,51H9.771    c-2.989-3.367-5.256-7.43-6.486-12h8.3l0.89,0.89C12.809,40.223,13,40.685,13,41.155c0,0.354-0.104,0.698-0.3,0.993l-1.145,1.717    C11.192,44.409,11,45.043,11,45.697C11,47.519,12.481,49,14.303,49h15.395C31.519,49,33,47.519,33,45.697    c0-0.654-0.192-1.288-0.555-1.832l-1.145-1.716C31.104,41.854,31,41.51,31,41.155c0-0.471,0.191-0.933,0.524-1.266l0.89-0.89    h6.836C39.09,39.384,39,39.805,39,40.246c0,1.492,1.011,2.788,2.459,3.149l4.22,1.055C46.457,44.646,47,45.341,47,46.143    c0,0.717-0.43,1.353-1.096,1.618l-6.275,2.511C38.032,50.911,37,52.435,37,54.154c0,1.496,0.807,2.888,2.107,3.63l2.715,1.551    C38.817,60.384,35.606,60.957,32.285,60.988z M44.192,58.387l-4.093-2.339C39.421,55.66,39,54.935,39,54.154    c0-0.897,0.539-1.692,1.372-2.025l6.275-2.511C48.076,49.047,49,47.683,49,46.143c0-1.721-1.166-3.214-2.835-3.632l-4.22-1.055    C41.388,41.316,41,40.819,41,40.246C41,39.559,41.559,39,42.246,39h18.468C58.338,47.828,52.149,54.814,44.192,58.387z"/><rect height="2" width="2" x="37" y="17"/><rect height="2" width="2" x="39" y="21"/><rect height="2" width="2" x="43" y="17"/><rect height="2" width="2" x="47" y="19"/><rect height="2" width="2" x="51" y="23"/><rect height="2" width="2" x="51" y="17"/></g></g></svg>